<?xml version="1.0" encoding="utf-8"?>
<!-- Generator: Adobe Illustrator 23.0.3, SVG Export Plug-In . SVG Version: 6.00 Build 0)  -->
<svg version="1.1" id="Слой_1" xmlns="http://www.w3.org/2000/svg" xmlns:xlink="http://www.w3.org/1999/xlink" x="0px" y="0px"
	 viewBox="0 0 24 23.8" style="enable-background:new 0 0 24 23.8;" xml:space="preserve">
<g>
	<path d="M13.7,3.1c1.4,0,2.6,0.3,3.7,0.8c1.1,0.6,2,1.4,2.6,2.6c0.6,1.1,0.9,2.6,0.9,4.4v10.1h-5.1v-9.3c0-1.4-0.3-2.5-0.9-3.1
		c-0.6-0.7-1.5-1-2.6-1c-0.8,0-1.5,0.2-2.2,0.5C9.5,8.3,9,8.8,8.6,9.5c-0.4,0.7-0.5,1.6-0.5,2.7v8.7H3V3.3h4.9v4.9L7,6.7
		C7.6,5.6,8.5,4.6,9.7,4C10.9,3.4,12.2,3.1,13.7,3.1z"/>
</g>
</svg>
