<?xml version="1.0" encoding="utf-8"?>
<!-- Generator: Adobe Illustrator 23.0.3, SVG Export Plug-In . SVG Version: 6.00 Build 0)  -->
<svg version="1.1" id="Слой_1" xmlns="http://www.w3.org/2000/svg" xmlns:xlink="http://www.w3.org/1999/xlink" x="0px" y="0px"
	 viewBox="0 0 512 512" style="enable-background:new 0 0 512 512;" xml:space="preserve">
<style type="text/css">
	.st0{fill:#585E60;}
</style>
<g transform="translate(0.000000,512.000000) scale(0.100000,-0.100000)">
	<path class="st0" d="M2300,5079c-464-50-906-226-1287-510c-137-103-391-358-495-499C244,3701,77,3283,19,2825c-18-142-15-473,6-620
		c78-562,312-1050,695-1448c320-333,709-567,1153-692c159-44,179-45,223-1l34,34v316c0,268-2,322-16,347c-24,48-65,59-221,59
		c-87,0-158,5-191,14c-77,21-182,87-260,164c-59,59-213,252-268,337l-19,30l50-29c28-16,83-54,124-85s88-67,105-79
		c17-13,66-41,110-62c200-99,411-92,507,18c56,64,72,109,77,215c7,150-3,163-156,213c-352,114-666,372-815,669
		c-73,147-106,336-88,502c25,223,106,403,261,578c61,69,62,70,57,120c-3,27-14,81-26,120c-39,129-25,298,34,415l25,50l55-24
		c88-39,186-108,278-194c47-45,98-84,113-88c17-4,52,0,89,10c278,78,389,96,605,96s327-18,605-96c35-10,72-14,87-11
		c14,4,69,46,122,95c91,83,208,164,288,197l38,15l24-48c65-129,74-318,22-462c-16-47-24-85-21-102c4-14,33-57,66-94
		c149-169,235-361,259-577c58-522-355-1018-1000-1202c-148-42-172-80-127-202c62-163,60-145,66-708c6-559,6-550,58-574
		c37-17,71-13,184,18c231,65,483,175,679,296c291,180,575,455,769,743c416,620,543,1389,346,2103c-128,462-360,852-701,1178
		c-393,375-869,606-1414,687C2785,5085,2421,5093,2300,5079z"/>
</g>
</svg>
