<?xml version="1.0" encoding="utf-8"?>
<!-- Generator: Adobe Illustrator 23.0.3, SVG Export Plug-In . SVG Version: 6.00 Build 0)  -->
<svg version="1.1" id="Слой_1" xmlns="http://www.w3.org/2000/svg" xmlns:xlink="http://www.w3.org/1999/xlink" x="0px" y="0px"
	 viewBox="0 0 446.7 446.9" style="enable-background:new 0 0 446.7 446.9;" xml:space="preserve">
<style type="text/css">
	.st0{fill:#585E60;}
</style>
<g transform="translate(0.000000,512.000000) scale(0.100000,-0.100000)">
	<path class="st0" d="M2098.3,5118c-561-41-1056-265-1445-654c-350-350-555-760-636-1272c-23-141-23-475,0-616
		c40-252,102-458,200-659c120-246,246-423,436-613c357-357,797-572,1310-641c119-16,427-16,540,0c416,58,763,199,1088,444
		c124,92,327,295,419,419c244,325,390,682,444,1088c7,52,13,174,13,270s-6,218-13,270c-68,512-283,952-641,1310
		c-347,348-772,561-1266,634C2446.3,5113,2188.3,5125,2098.3,5118z M2474.3,4308c601-102,1081-583,1183-1183c21-123,21-358,0-482
		c-100-600-588-1085-1192-1184c-141-24-409-17-538,13c-508,118-903,474-1063,957c-53,161-71,276-71,455s18,294,71,455
		c172,518,632,901,1174,978C2120.3,4328,2386.3,4323,2474.3,4308z"/>
	<path class="st0" d="M2186.3,3984c-95-57-202-297-257-570c-23-117-46-287-46-345v-25h350h350v28c0,125-61,446-112,591
		c-71,201-169,341-238,341C2225.3,4004,2204.3,3995,2186.3,3984z"/>
	<path class="st0" d="M1614.3,3813c-247-164-428-437-480-721l-8-48h213h213l5,33c2,17,9,86,16,151c15,164,53,352,101,498
		c22,68,43,129,45,136C1729.3,3885,1704.3,3874,1614.3,3813z"/>
	<path class="st0" d="M2747.3,3862c2-7,23-68,45-136c48-146,86-334,101-498c7-65,14-134,16-151l5-33h213h213l-8,48
		c-52,284-233,557-480,721C2762.3,3874,2737.3,3885,2747.3,3862z"/>
	<path class="st0" d="M1134.3,2677c52-285,233-558,480-722c90-61,115-72,105-48c-2,6-23,67-45,135c-48,146-86,334-101,498
		c-7,65-14,134-16,152l-5,32h-213h-213L1134.3,2677z"/>
	<path class="st0" d="M1883.3,2699c0-58,23-228,46-345c58-290,176-539,274-580c134-56,308,311,365,770c8,68,15,137,15,152v28h-350
		h-350V2699z"/>
	<path class="st0" d="M2909.3,2692c-2-18-9-87-16-152c-15-164-53-352-101-498c-22-68-43-129-45-135c-10-24,15-13,105,48
		c247,164,428,437,480,722l8,47h-213h-213L2909.3,2692z"/>
</g>
</svg>
